<svg width="26" height="26" viewBox="0 0 26 26" fill="none" xmlns="http://www.w3.org/2000/svg">
<rect width="26" height="26" rx="4" fill="#E1E1E8"/>
<path fill-rule="evenodd" clip-rule="evenodd" d="M8.33333 11.6641C7.6 11.6641 7 12.2641 7 12.9974C7 13.7307 7.6 14.3307 8.33333 14.3307C9.06667 14.3307 9.66667 13.7307 9.66667 12.9974C9.66667 12.2641 9.06667 11.6641 8.33333 11.6641ZM17.6667 11.6641C16.9333 11.6641 16.3333 12.2641 16.3333 12.9974C16.3333 13.7307 16.9333 14.3307 17.6667 14.3307C18.4 14.3307 19 13.7307 19 12.9974C19 12.2641 18.4 11.6641 17.6667 11.6641ZM11.6667 12.9974C11.6667 12.2641 12.2667 11.6641 13 11.6641C13.7333 11.6641 14.3333 12.2641 14.3333 12.9974C14.3333 13.7307 13.7333 14.3307 13 14.3307C12.2667 14.3307 11.6667 13.7307 11.6667 12.9974Z" fill="#201F37"/>
</svg>
