<svg width="32" height="32" viewBox="0 0 32 32" fill="none" xmlns="http://www.w3.org/2000/svg">
<path d="M16.0018 11.836C13.7316 11.836 11.9005 13.6385 11.9005 15.8732C11.9005 18.1079 13.7316 19.9104 16.0018 19.9104C18.2719 19.9104 20.1031 18.1079 20.1031 15.8732C20.1031 13.6385 18.2719 11.836 16.0018 11.836ZM16.0018 18.4979C14.5347 18.4979 13.3354 17.3209 13.3354 15.8732C13.3354 14.4256 14.5312 13.2485 16.0018 13.2485C17.4724 13.2485 18.6682 14.4256 18.6682 15.8732C18.6682 17.3209 17.4688 18.4979 16.0018 18.4979ZM21.2274 11.6709C21.2274 12.1944 20.7991 12.6126 20.2708 12.6126C19.739 12.6126 19.3142 12.1909 19.3142 11.6709C19.3142 11.1509 19.7426 10.7292 20.2708 10.7292C20.7991 10.7292 21.2274 11.1509 21.2274 11.6709ZM23.9438 12.6266C23.8831 11.3652 23.5904 10.2479 22.6516 9.32729C21.7165 8.40671 20.5814 8.11859 19.2999 8.05534C17.9793 7.98155 14.0207 7.98155 12.7001 8.05534C11.4222 8.11507 10.2871 8.40319 9.34835 9.32377C8.40959 10.2444 8.12047 11.3617 8.05622 12.6231C7.98126 13.9232 7.98126 17.8198 8.05622 19.1199C8.1169 20.3813 8.40959 21.4986 9.34835 22.4192C10.2871 23.3398 11.4186 23.6279 12.7001 23.6911C14.0207 23.7649 17.9793 23.7649 19.2999 23.6911C20.5814 23.6314 21.7165 23.3433 22.6516 22.4192C23.5868 21.4986 23.8795 20.3813 23.9438 19.1199C24.0187 17.8198 24.0187 13.9267 23.9438 12.6266ZM22.2376 20.5148C21.9592 21.2035 21.4202 21.734 20.717 22.0116C19.664 22.4227 17.1654 22.3278 16.0018 22.3278C14.8381 22.3278 12.336 22.4192 11.2866 22.0116C10.5869 21.7375 10.048 21.207 9.76598 20.5148C9.34835 19.4783 9.44473 17.0187 9.44473 15.8732C9.44473 14.7278 9.35192 12.2647 9.76598 11.2317C10.0444 10.543 10.5834 10.0124 11.2866 9.73487C12.3395 9.32377 14.8381 9.41864 16.0018 9.41864C17.1654 9.41864 19.6676 9.32729 20.717 9.73487C21.4166 10.0089 21.9556 10.5395 22.2376 11.2317C22.6552 12.2682 22.5588 14.7278 22.5588 15.8732C22.5588 17.0187 22.6552 19.4818 22.2376 20.5148Z" fill="#4F46E5"/>
</svg>
