<svg width="18" height="12" viewBox="0 0 18 12" fill="none" xmlns="http://www.w3.org/2000/svg">
<path fill-rule="evenodd" clip-rule="evenodd" d="M0.148438 0.998438C0.148438 0.528995 0.528995 0.148438 0.998438 0.148438H16.9984C17.4679 0.148438 17.8484 0.528995 17.8484 0.998438C17.8484 1.46788 17.4679 1.84844 16.9984 1.84844H0.998438C0.528995 1.84844 0.148438 1.46788 0.148438 0.998438ZM0.148438 5.99844C0.148438 5.529 0.528996 5.14844 0.998438 5.14844L10.9984 5.14844C11.4679 5.14844 11.8484 5.529 11.8484 5.99844C11.8484 6.46788 11.4679 6.84844 10.9984 6.84844L0.998437 6.84844C0.528995 6.84844 0.148437 6.46788 0.148438 5.99844ZM0.998438 10.1484C0.528995 10.1484 0.148438 10.529 0.148438 10.9984C0.148438 11.4679 0.528995 11.8484 0.998438 11.8484H16.9984C17.4679 11.8484 17.8484 11.4679 17.8484 10.9984C17.8484 10.529 17.4679 10.1484 16.9984 10.1484H0.998438Z" fill="#201F37"/>
</svg>
