<svg width="32" height="32" viewBox="0 0 32 32" fill="none" xmlns="http://www.w3.org/2000/svg">
<path d="M24.465 11.9337C24.2599 11.1726 23.6554 10.5731 22.888 10.3697C21.4969 10 15.9189 10 15.9189 10C15.9189 10 10.3409 10 8.94978 10.3697C8.18233 10.5731 7.57789 11.1726 7.37274 11.9337C7 13.3133 7 16.1918 7 16.1918C7 16.1918 7 19.0703 7.37274 20.4499C7.57789 21.211 8.18233 21.7855 8.94978 21.989C10.3409 22.3586 15.9189 22.3586 15.9189 22.3586C15.9189 22.3586 21.4969 22.3586 22.888 21.989C23.6554 21.7855 24.2599 21.211 24.465 20.4499C24.8377 19.0703 24.8377 16.1918 24.8377 16.1918C24.8377 16.1918 24.8377 13.3133 24.465 11.9337ZM14.0945 18.8052V13.5784L18.7567 16.1919L14.0945 18.8052Z" fill="#4F46E5"/>
</svg>
