<svg width="32" height="32" viewBox="0 0 32 32" fill="none" xmlns="http://www.w3.org/2000/svg">
<path d="M13.9879 12.4338C14.1643 12.4338 14.3297 12.5198 14.431 12.6642L18.6731 18.709C18.9263 19.0698 18.6682 19.5662 18.2274 19.5662C18.0498 19.5662 17.8833 19.4796 17.7814 19.3341L13.5444 13.2858C13.2931 12.927 13.5498 12.4338 13.9879 12.4338ZM24 16C24 20.4183 20.4183 24 16 24C11.5817 24 8 20.4183 8 16C8 11.5817 11.5817 8 16 8C20.4183 8 24 11.5817 24 16ZM18.2383 20.4444C19.3696 20.4444 20.033 19.1714 19.385 18.2441L17.9074 16.1297C17.4919 15.5351 17.5305 14.7348 18.0014 14.1829L19.6196 12.2867C19.8652 11.9989 19.6607 11.5556 19.2824 11.5556C19.1528 11.5556 19.0297 11.6122 18.9455 11.7107L18.2617 12.5097C17.4583 13.4487 15.9846 13.3763 15.2769 12.3632L15.1313 12.1547C14.8691 11.7792 14.4401 11.5556 13.9821 11.5556C12.8482 11.5556 12.1836 12.8318 12.8336 13.7609L14.0237 15.462C14.477 16.1099 14.4345 16.9825 13.9204 17.5833L12.1074 19.7019C11.8576 19.9938 12.0651 20.4444 12.4493 20.4444C12.581 20.4444 12.7061 20.3868 12.7916 20.2866L13.5599 19.3865C14.4529 18.3402 16.0936 18.4193 16.8818 19.5467L17.0917 19.847C17.3534 20.2214 17.7815 20.4444 18.2383 20.4444Z" fill="#4F46E5"/>
</svg>
